<?xml version="1.0" encoding="UTF-8"?><svg id="Layer_1" xmlns="http://www.w3.org/2000/svg" viewBox="0 0 176.42 62.44"><defs><style>.cls-1{fill:#fff;}.cls-2{fill:#f7931e;}</style></defs><path class="cls-2" d="m30.99,40.77c-4.73-1.25-9.36-2.65-13.42-4.06-.73-.26-1.46-.52-2.13-.52-8.32-.31-15.44-6.45-15.44-17.73S6.86,0,16.33,0s15.7,7.38,15.7,17.73c0,9-4.16,14.77-9.98,16.8v.21c3.48.88,7.28,1.72,10.24,2.24l-1.3,3.8Zm-3.74-22.83c0-7.02-3.64-14.25-11.08-14.25s-11.39,7.07-11.34,14.66c-.05,7.44,4.06,14.14,11.13,14.14s11.28-6.55,11.28-14.56Z"/><path class="cls-2" d="m38.64,25.35h4.52v23.45c0,9.31-4.58,12.17-10.61,12.17-1.66,0-3.69-.36-4.84-.83l.68-3.69c.94.36,2.29.68,3.8.68,4.06,0,6.45-1.82,6.45-8.68v-23.09Z"/><path class="cls-1" d="m51.26,30.8c1.64,1.01,4.03,1.85,6.55,1.85,3.74,0,5.92-1.97,5.92-4.83,0-2.65-1.51-4.16-5.33-5.63-4.62-1.64-7.48-4.03-7.48-8.02,0-4.41,3.65-7.69,9.16-7.69,2.9,0,5,.67,6.26,1.39l-1.01,2.98c-.92-.5-2.81-1.34-5.38-1.34-3.86,0-5.33,2.31-5.33,4.24,0,2.65,1.72,3.95,5.63,5.46,4.79,1.85,7.23,4.16,7.23,8.32,0,4.37-3.23,8.15-9.91,8.15-2.73,0-5.71-.8-7.23-1.81l.92-3.07Z"/><path class="cls-1" d="m72.34,21.56c0-2.6-.08-4.71-.17-6.64h3.32l.17,3.49h.08c1.51-2.48,3.91-3.95,7.23-3.95,4.92,0,8.61,4.16,8.61,10.33,0,7.31-4.45,10.92-9.24,10.92-2.69,0-5.04-1.18-6.26-3.19h-.08v11.05h-3.65v-22.01Zm3.65,5.42c0,.55.08,1.05.17,1.51.67,2.56,2.9,4.33,5.54,4.33,3.91,0,6.18-3.19,6.18-7.86,0-4.07-2.14-7.56-6.05-7.56-2.52,0-4.87,1.81-5.59,4.58-.13.46-.25,1.01-.25,1.51v3.49Z"/><path class="cls-1" d="m100.36,9.21c.04,1.26-.88,2.27-2.35,2.27-1.3,0-2.23-1.01-2.23-2.27s.97-2.31,2.31-2.31,2.27,1.01,2.27,2.31Zm-4.12,26.04V14.93h3.7v20.33h-3.7Z"/><path class="cls-1" d="m123.63,5.43v24.57c0,1.81.04,3.86.17,5.25h-3.32l-.17-3.53h-.08c-1.13,2.27-3.61,3.99-6.93,3.99-4.92,0-8.7-4.16-8.7-10.33-.04-6.76,4.16-10.92,9.12-10.92,3.11,0,5.21,1.47,6.13,3.11h.08V5.43h3.7Zm-3.7,17.77c0-.46-.04-1.09-.17-1.55-.55-2.35-2.56-4.28-5.33-4.28-3.82,0-6.09,3.36-6.09,7.86,0,4.12,2.02,7.52,6.01,7.52,2.48,0,4.75-1.64,5.42-4.41.13-.5.17-1.01.17-1.6v-3.53Z"/><path class="cls-1" d="m131.81,25.76c.08,5,3.28,7.06,6.97,7.06,2.65,0,4.24-.46,5.63-1.05l.63,2.65c-1.3.59-3.53,1.26-6.76,1.26-6.26,0-10-4.12-10-10.25s3.61-10.96,9.54-10.96c6.64,0,8.4,5.84,8.4,9.58,0,.76-.08,1.34-.13,1.72h-14.28Zm10.84-2.65c.04-2.35-.97-6.01-5.12-6.01-3.74,0-5.38,3.44-5.67,6.01h10.8Z"/><path class="cls-1" d="m150.8,21.27c0-2.39-.04-4.45-.17-6.34h3.23l.13,3.99h.17c.92-2.73,3.15-4.45,5.63-4.45.42,0,.71.04,1.05.13v3.49c-.38-.08-.76-.13-1.26-.13-2.6,0-4.45,1.97-4.96,4.75-.08.5-.17,1.09-.17,1.72v10.84h-3.65v-13.99Z"/><path class="cls-1" d="m164.03,31.48c1.09.71,3.02,1.47,4.87,1.47,2.69,0,3.95-1.34,3.95-3.02,0-1.76-1.05-2.73-3.78-3.74-3.65-1.3-5.38-3.32-5.38-5.75,0-3.28,2.65-5.96,7.02-5.96,2.06,0,3.86.59,5,1.26l-.92,2.69c-.8-.5-2.27-1.18-4.16-1.18-2.18,0-3.4,1.26-3.4,2.77,0,1.68,1.22,2.44,3.87,3.44,3.53,1.34,5.33,3.11,5.33,6.13,0,3.57-2.77,6.09-7.6,6.09-2.23,0-4.29-.55-5.71-1.39l.92-2.81Z"/><path class="cls-2" d="m63.75,54.92h-6.02v5.59h6.71v1.68h-8.72v-15.5h8.37v1.68h-6.37v4.9h6.02v1.66Z"/><path class="cls-2" d="m67.04,46.9c1.01-.21,2.46-.32,3.84-.32,2.14,0,3.52.39,4.48,1.27.78.69,1.22,1.75,1.22,2.94,0,2.05-1.29,3.4-2.92,3.96v.07c1.2.41,1.91,1.52,2.28,3.13.51,2.16.87,3.66,1.2,4.25h-2.07c-.25-.44-.6-1.77-1.03-3.7-.46-2.14-1.29-2.94-3.1-3.01h-1.89v6.71h-2v-15.29Zm2,7.06h2.05c2.14,0,3.5-1.17,3.5-2.94,0-2-1.45-2.87-3.56-2.9-.97,0-1.66.09-1.98.18v5.66Z"/><path class="cls-2" d="m79.42,62.19v-15.5h2.18l4.97,7.84c1.15,1.82,2.05,3.45,2.78,5.04l.05-.02c-.18-2.07-.23-3.96-.23-6.37v-6.48h1.89v15.5h-2.02l-4.92-7.86c-1.08-1.72-2.12-3.5-2.9-5.17l-.07.02c.12,1.96.16,3.82.16,6.39v6.62h-1.89Z"/><path class="cls-2" d="m97.06,57.31l-1.61,4.88h-2.07l5.27-15.5h2.41l5.29,15.5h-2.14l-1.66-4.88h-5.5Zm5.08-1.56l-1.52-4.46c-.35-1.01-.58-1.93-.8-2.83h-.05c-.23.92-.48,1.86-.78,2.81l-1.52,4.48h4.67Z"/><path class="cls-2" d="m108.63,46.69h2v7.47h.07c.41-.6.83-1.15,1.22-1.66l4.74-5.82h2.48l-5.61,6.58,6.05,8.92h-2.37l-5.1-7.61-1.47,1.7v5.91h-2v-15.5Z"/><path class="cls-2" d="m123.09,46.69v9.17c0,3.47,1.54,4.94,3.61,4.94,2.3,0,3.77-1.52,3.77-4.94v-9.17h2.02v9.04c0,4.76-2.51,6.71-5.86,6.71-3.17,0-5.56-1.82-5.56-6.62v-9.13h2.02Z"/><path class="cls-2" d="m135.97,46.69h2v13.82h6.62v1.68h-8.62v-15.5Z"/><path class="cls-2" d="m149.34,57.31l-1.61,4.88h-2.07l5.27-15.5h2.41l5.29,15.5h-2.14l-1.66-4.88h-5.5Zm5.08-1.56l-1.52-4.46c-.35-1.01-.58-1.93-.8-2.83h-.05c-.23.92-.48,1.86-.78,2.81l-1.52,4.48h4.67Z"/><path class="cls-2" d="m173.88,55.38c-.12-2.16-.25-4.76-.23-6.69h-.07c-.53,1.82-1.17,3.75-1.96,5.89l-2.74,7.52h-1.52l-2.51-7.38c-.74-2.18-1.36-4.19-1.79-6.02h-.05c-.05,1.93-.16,4.53-.3,6.85l-.41,6.65h-1.91l1.08-15.5h2.55l2.64,7.5c.64,1.91,1.17,3.61,1.56,5.22h.07c.39-1.56.94-3.27,1.63-5.22l2.76-7.5h2.55l.97,15.5h-1.96l-.39-6.81Z"/></svg>